<svg width="200" height="200" viewBox="0 0 200 200" fill="none" xmlns="http://www.w3.org/2000/svg">
<path d="M129.5 50.5C129.5 48.2909 127.709 46.5 125.5 46.5C123.291 46.5 121.5 48.2909 121.5 50.5C121.5 52.7091 123.291 54.5 125.5 54.5C127.709 54.5 129.5 52.7091 129.5 50.5Z" fill="#00D4FF"/>
<path d="M110.5 36.5C110.5 34.2909 108.709 32.5 106.5 32.5C104.291 32.5 102.5 34.2909 102.5 36.5C102.5 38.7091 104.291 40.5 106.5 40.5C108.709 40.5 110.5 38.7091 110.5 36.5Z" fill="#00D4FF"/>
<path d="M93.5 36.5C93.5 34.2909 91.7091 32.5 89.5 32.5C87.2909 32.5 85.5 34.2909 85.5 36.5C85.5 38.7091 87.2909 40.5 89.5 40.5C91.7091 40.5 93.5 38.7091 93.5 36.5Z" fill="#00D4FF"/>
<path d="M74.5 50.5C74.5 48.2909 72.7091 46.5 70.5 46.5C68.2909 46.5 66.5 48.2909 66.5 50.5C66.5 52.7091 68.2909 54.5 70.5 54.5C72.7091 54.5 74.5 52.7091 74.5 50.5Z" fill="#00D4FF"/>
<path d="M100 25C98.3431 25 97 26.3431 97 28C97 29.6569 98.3431 31 100 31C101.657 31 103 29.6569 103 28C103 26.3431 101.657 25 100 25Z" fill="#00D4FF"/>
<path d="M52 103C52 101.343 50.6569 100 49 100C47.3431 100 46 101.343 46 103L46 123C46 124.657 47.3431 126 49 126C50.6569 126 52 124.657 52 123L52 103Z" fill="#00D4FF"/>
<path d="M52 70C52 68.3431 50.6569 67 49 67C47.3431 67 46 68.3431 46 70L46 92C46 93.6569 47.3431 95 49 95C50.6569 95 52 93.6569 52 92L52 70Z" fill="#00D4FF"/>
<path d="M49 59C52.3137 59 55 56.3137 55 53C55 49.6863 52.3137 47 49 47C45.6863 47 43 49.6863 43 53C43 56.3137 45.6863 59 49 59Z" fill="#00D4FF"/>
<path d="M72 86C72 84.3431 70.6569 83 69 83C67.3431 83 66 84.3431 66 86V87C66 88.6569 67.3431 90 69 90C70.6569 90 72 88.6569 72 87V86Z" fill="#00D4FF"/>
<path d="M72 103C72 101.343 70.6569 100 69 100C67.3431 100 66 101.343 66 103V104C66 105.657 67.3431 107 69 107C70.6569 107 72 105.657 72 104V103Z" fill="#00D4FF"/>
<path d="M72 120C72 118.343 70.6569 117 69 117C67.3431 117 66 118.343 66 120V121C66 122.657 67.3431 124 69 124C70.6569 124 72 122.657 72 121V120Z" fill="#00D4FF"/>
<path d="M72 69C72 67.3431 70.6569 66 69 66C67.3431 66 66 67.3431 66 69V70C66 71.6569 67.3431 73 69 73C70.6569 73 72 71.6569 72 70V69Z" fill="#00D4FF"/>
<path d="M128 121C128 122.657 129.343 124 131 124C132.657 124 134 122.657 134 121V120C134 118.343 132.657 117 131 117C129.343 117 128 118.343 128 120V121Z" fill="#00D4FF"/>
<path d="M128 104C128 105.657 129.343 107 131 107C132.657 107 134 105.657 134 104V103C134 101.343 132.657 100 131 100C129.343 100 128 101.343 128 103V104Z" fill="#00D4FF"/>
<path d="M128 87C128 88.6569 129.343 90 131 90C132.657 90 134 88.6569 134 87V86C134 84.3431 132.657 83 131 83C129.343 83 128 84.3431 128 86V87Z" fill="#00D4FF"/>
<path d="M128 70C128 71.6569 129.343 73 131 73C132.657 73 134 71.6569 134 70V69C134 67.3431 132.657 66 131 66C129.343 66 128 67.3431 128 69V70Z" fill="#00D4FF"/>
<path d="M149 126C150.657 126 152 124.657 152 123L152 103C152 101.343 150.657 100 149 100C147.343 100 146 101.343 146 103L146 123C146 124.657 147.343 126 149 126Z" fill="#00D4FF"/>
<path d="M149 95C150.657 95 152 93.6569 152 92L152 70C152 68.3431 150.657 67 149 67C147.343 67 146 68.3431 146 70L146 92C146 93.6569 147.343 95 149 95Z" fill="#00D4FF"/>
<path d="M149 59C152.314 59 155 56.3137 155 53C155 49.6863 152.314 47 149 47C45.6863 47 143 49.6863 143 53C143 56.3137 145.686 59 149 59Z" fill="#00D4FF"/>
<path fill-rule="evenodd" clip-rule="evenodd" d="M100 8C104.971 8 109 12.0294 109 17C109 21.9706 104.971 26 100 26C95.0294 26 91 21.9706 91 17C91 12.0294 95.0294 8 100 8ZM100 10C96.134 10 93 13.134 93 17C93 20.866 96.134 24 100 24C103.866 24 107 20.866 107 17C107 13.134 103.866 10 100 10Z" fill="#00D4FF"/>
<path d="M117 21C115.343 21 114 22.3431 114 24C114 25.6569 115.343 27 117 27C118.657 27 120 25.6569 120 24C120 22.3431 118.657 21 117 21Z" fill="#00D4FF"/>
<path d="M133 30C131.343 30 130 31.3431 130 33C130 34.6569 131.343 36 133 36C134.657 36 136 34.6569 136 33C136 31.3431 134.657 30 133 30Z" fill="#00D4FF"/>
<path d="M145 42C143.343 42 142 43.3431 142 45C142 46.6569 143.343 48 145 48C146.657 48 148 46.6569 148 45C148 43.3431 146.657 42 145 42Z" fill="#00D4FF"/>
<path d="M83 21C81.3431 21 80 22.3431 80 24C80 25.6569 81.3431 27 83 27C84.6569 27 86 25.6569 86 24C86 22.3431 84.6569 21 83 21Z" fill="#00D4FF"/>
<path d="M67 30C65.3431 30 64 31.3431 64 33C64 34.6569 65.3431 36 67 36C68.6569 36 70 34.6569 70 33C70 31.3431 68.6569 30 67 30Z" fill="#00D4FF"/>
<path d="M55 42C53.3431 42 52 43.3431 52 45C52 46.6569 53.3431 48 55 48C56.6569 48 58 46.6569 58 45C58 43.3431 56.6569 42 55 42Z" fill="#00D4FF"/>
<path d="M161 62C159.343 62 158 63.3431 158 65V97C158 98.6569 159.343 100 161 100C162.657 100 164 98.6569 164 97V65C164 63.3431 162.657 62 161 62Z" fill="#00D4FF"/>
<path d="M161 106C159.343 106 158 107.343 158 109V127C158 128.657 159.343 130 161 130C162.657 130 164 128.657 164 127V109C164 107.343 162.657 106 161 106Z" fill="#00D4FF"/>
<path d="M161 56C164.314 56 167 53.3137 167 50C167 46.6863 164.314 44 161 44C157.686 44 155 46.6863 155 50C155 53.3137 157.686 56 161 56Z" fill="#00D4FF"/>
<path d="M39 62C37.3431 62 36 63.3431 36 65V97C36 98.6569 37.3431 100 39 100C40.6569 100 42 98.6569 42 97V65C42 63.3431 40.6569 62 39 62Z" fill="#00D4FF"/>
<path d="M39 106C37.3431 106 36 107.343 36 109V127C36 128.657 37.3431 130 39 130C40.6569 130 42 128.657 42 127V109C42 107.343 40.6569 106 39 106Z" fill="#00D4FF"/>
<path d="M39 56C42.3137 56 45 53.3137 45 50C45 46.6863 42.3137 44 39 44C35.6863 44 33 46.6863 33 50C33 53.3137 35.6863 56 39 56Z" fill="#00D4FF"/>
<path fill-rule="evenodd" clip-rule="evenodd" d="M117 84H83C81.3431 84 80 85.3431 80 87V117C80 118.657 81.3431 120 83 120H117C118.657 120 120 118.657 120 117V87C120 85.3431 118.657 84 117 84ZM83 86H117V118H83V86Z" fill="#00D4FF"/>
<path d="M96 95C96 92.7909 97.7909 91 100 91C102.209 91 104 92.7909 104 95C104 97.2091 102.209 99 100 99C97.7909 99 96 97.2091 96 95Z" fill="#00D4FF"/>
<path d="M100 101C98.8954 101 98 101.895 98 103V111C98 112.105 98.8954 113 100 113C101.105 113 102 112.105 102 111V103C102 101.895 101.105 101 100 101Z" fill="#00D4FF"/>
<path d="M109 107C109 104.791 107.209 103 105 103H103C102.448 103 102 102.552 102 102C102 101.448 102.448 101 103 101H105C108.314 101 111 103.686 111 107C111 110.314 108.314 113 105 113H103C102.448 113 102 112.552 102 112C102 111.448 102.448 111 103 111H105C107.209 111 109 109.209 109 107Z" fill="#00D4FF"/>
<path d="M91 107C91 109.209 92.7909 111 95 111H97C97.5523 111 98 111.448 98 112C98 112.552 97.5523 113 97 113H95C91.6863 113 89 110.314 89 107C89 103.686 91.6863 101 95 101H97C97.5523 101 98 101.448 98 102C98 102.552 97.5523 103 97 103H95C92.7909 103 91 104.791 91 107Z" fill="#00D4FF"/>
<path fill-rule="evenodd" clip-rule="evenodd" d="M129 130H71C64.9249 130 60 125.075 60 119V75C60 68.9249 64.9249 64 71 64H129C135.075 64 140 68.9249 140 75V119C140 125.075 135.075 130 129 130ZM71 66H129C133.971 66 138 70.0294 138 75V119C138 123.971 133.971 128 129 128H71C66.0294 128 62 123.971 62 119V75C62 70.0294 66.0294 66 71 66Z" fill="#00D4FF"/>
<path d="M60 144H26V146H60V144Z" fill="#00D4FF"/>
<path d="M26 154L26 152L51 152L51 154L26 154Z" fill="#00D4FF"/>
<path d="M33 162L33 160L54 160L54 162L33 162Z" fill="#00D4FF"/>
<path d="M26 170L26 168L48 168L48 170L26 170Z" fill="#00D4FF"/>
<path d="M53 170L53 168L60 168L60 170L53 170Z" fill="#00D4FF"/>
<path d="M37 146L37 144L39 144L39 146L37 146Z" fill="#00D4FF"/>
<path d="M42 154L42 152L44 152L44 154L42 154Z" fill="#00D4FF"/>
<path d="M48 162L48 160L50 160L50 162L48 162Z" fill="#00D4FF"/>
<path d="M42 170L42 168L44 168L44 170L42 170Z" fill="#00D4FF"/>
<path d="M57 170L57 168L59 168L59 170L57 170Z" fill="#00D4FF"/>
<path d="M34 144L26 144V142L34 142V144Z" fill="#00D4FF"/>
<path d="M47 152L39 152V150L47 150V152Z" fill="#00D4FF"/>
<path d="M55 160L47 160V158L55 158V160Z" fill="#00D4FF"/>
<path d="M48 168L40 168V166L48 166V168Z" fill="#00D4FF"/>
<path d="M54 168L60 168V166L54 166V168Z" fill="#00D4FF"/>
<path d="M39 142L37 142V140L39 140V142Z" fill="#00D4FF"/>
<path d="M44 150L42 150V148L44 148V150Z" fill="#00D4FF"/>
<path d="M50 158L48 158V156L50 156V158Z" fill="#00D4FF"/>
<path d="M44 166L42 166V164L44 164V166Z" fill="#00D4FF"/>
<path d="M59 166L57 166V164L59 164V166Z" fill="#0-D4FF"/>
<path d="M74 144L66 144V142L74 142V144Z" fill="#00D4FF"/>
<path d="M69 152L66 152V150L69 150V152Z" fill="#00D4FF"/>
<path d="M83 152L79 152V150L83 150V152Z" fill="#00D4FF"/>
<path d="M71 160L66 160V158L71 158V160Z" fill="#00D4FF"/>
<path d="M80 160L77 160V158L80 158V160Z" fill="#00D4FF"/>
<path d="M90 160L86 160V158L90 158V160Z" fill="#00D4FF"/>
<path d="M69 168L66 168V166L69 166V168Z" fill="#00D4FF"/>
<path d="M78 168L74 168V166L78 166V168Z" fill="#00D4FF"/>
<path d="M83 168L81 168V166L83 166V168Z" fill="#00D4FF"/>
<path d="M96 144L93 144V142L96 142V144Z" fill="#00D4FF"/>
<path d="M102 144L99 144V142L102 142V144Z" fill="#00D4FF"/>
<path d="M109 144L106 144V142L109 142V144Z" fill="#00D4FF"/>
<path d="M96 152L93 152V150L96 150V152Z" fill="#00D4FF"/>
<path d="M109 152L102 152V150L109 150V152Z" fill="#00D4FF"/>
<path d="M106 160L96 160V158L106 158V160Z" fill="#00D4FF"/>
<path d="M99 168L93 168V166L99 166V168Z" fill="#00D4FF"/>
<path d="M106 168L102 168V166L106 166V168Z" fill="#00D4FF"/>
<path d="M123 144L115 144V142L123 142V144Z" fill="#00D4FF"/>
<path d="M123 152L115 152V150L123 150V152Z" fill="#00D4FF"/>
<path d="M118 160L115 160V158L118 158V160Z" fill="#00D4FF"/>
<path d="M123 168L115 168V166L123 166V168Z" fill="#00D4FF"/>
<path d="M136 144L130 144V142L136 142V144Z" fill="#00D4FF"/>
<path d="M136 152L130 152V150L136 150V152Z" fill="#00D4FF"/>
<path d="M133 160L130 160V158L133 158V160Z" fill="#00D4FF"/>
<th d="M138 160L136 160V158L138 158V160Z" fill="#00D4FF"/>
<path d="M136 168L130 168V166L136 166V168Z" fill="#00D4FF"/>
<path d="M152 144L148 144V142L152 142V144Z" fill="#00D4FF"/>
<path d="M152 152L148 152V150L152 150V152Z" fill="#00D4FF"/>
<path d="M152 160L148 160V158L152 158V160Z" fill="#00D4FF"/>
<path d="M152 168L148 168V166L152 166V168Z" fill="#00D4FF"/>
<path d="M167 144L161 144V142L167 142V144Z" fill="#00D4FF"/>
<path d="M167 152L161 152V150L167 150V152Z" fill="#00D4FF"/>
<path d="M167 160L161 160V158L167 158V160Z" fill="#00D4FF"/>
<path d="M167 168L161 168V166L167 166V168Z" fill="#00D4FF"/>
<path d="M174 144L172 144V142L174 142V144Z" fill="#00D4FF"/>
<path d="M174 152L172 152V150L174 150V152Z" fill="#00D4FF"/>
<path d="M174 160L172 160V158L174 158V160Z" fill="#00D4FF"/>
<path d="M174 168L172 168V166L174 166V168Z" fill="#00D4FF"/>
<path d="M110 178L106 178V176L110 176V178Z" fill="#00D4FF"/>
<path d="M110 186L106 186V184L110 184V186Z" fill="#00D4FF"/>
<path d="M121 178L117 178V176L121 176V178Z" fill="#00D4FF"/>
<path d="M119 186L115 186V184L119 184V186Z" fill="#00D4FF"/>
<path d="M124 186L122 186V184L124 184V186Z" fill="#00D4FF"/>
<path d="M133 178L129 178V176L133 176V178Z" fill="#00D4FF"/>
<path d="M131 186L129 186V184L131 184V186Z" fill="#00D4FF"/>
<path d="M140 178L138 178V176L140 176V178Z" fill="#00D4FF"/>
<path d="M145 178L143 178V176L145 176V178Z" fill="#00D4FF"/>
<path d="M140 186L138 186V184L140 184V186Z" fill="#00D4FF"/>
<path d="M145 186L143 186V184L145 184V186Z" fill="#00D4FF"/>
<path d="M151 178L149 178V176L151 176V178Z" fill="#00D4FF"/>
<path d="M151 186L149 186V184L151 184V186Z" fill="#00D4FF"/>
<path d="M97 178L91 178V176L97 176V178Z" fill="#00D4FF"/>
<path d="M95 186L91 186V184L95 184V186Z" fill="#00D4FF"/>
<path d="M86 178L82 178V176L86 176V178Z" fill="#00D4FF"/>
<path d="M82 186L78 186V184L82 184V186Z" fill="#00D4FF"/>
<path d="M78 178L76 178V176L78 176V178Z" fill="#00D4FF"/>
<path d="M73 178L71 178V176L73 176V178Z" fill="#00D4FF"/>
<path d="M73 186L71 186V184L73 184V186Z" fill="#00D4FF"/>
<path d="M68 178L66 178V176L68 176V178Z" fill="#00D4FF"/>
<path d="M68 186L66 186V184L68 184V186Z" fill="#00D4FF"/>
</svg>
