<svg width="150" height="150" viewBox="0 0 150 150" fill="none" xmlns="http://www.w3.org/2000/svg">
<path d="M75 0L149.25 43.75V131.25L75 175L0.75 131.25V43.75L75 0Z" fill="white"/>
<path d="M75 15L138.75 51.25V123.75L75 160L11.25 123.75V51.25L75 15Z" fill="#1E1E1E"/>
<path d="M75 30L128.25 61.25V123.75L75 155L21.75 123.75V61.25L75 30Z" fill="url(#paint0_linear_1_2)"/>
<path d="M75 52.5L106.5 70.625V106.875L75 125L43.5 106.875V70.625L75 52.5Z" fill="#1E1E1E"/>
<path d="M75 63.75L96.75 76.5625V102.188L75 115L53.25 102.188V76.5625L75 63.75Z" fill="url(#paint1_linear_1_2)"/>
<defs>
<linearGradient id="paint0_linear_1_2" x1="75" y1="30" x2="75" y2="155" gradientUnits="userSpaceOnUse">
<stop stop-color="#00A4FF"/>
<stop offset="1" stop-color="#FF00C7"/>
</linearGradient>
<linearGradient id="paint1_linear_1_2" x1="75" y1="63.75" x2="75" y2="115" gradientUnits="userSpaceOnUse">
<stop stop-color="#FFFFFF"/>
<stop offset="1" stop-color="#E0E0E0"/>
</linearGradient>
</defs>
</svg>
